<svg width="96" height="96" viewBox="0 0 96 96" fill="none" xmlns="http://www.w3.org/2000/svg">
<path d="M36 81C37.98 81 39.96 81 42 81C42 82.98 42 84.96 42 87C40.02 87 38.04 87 36 87C36 85.02 36 83.04 36 81Z" fill="white"/>
<path d="M27 81C28.98 81 30.96 81 33 81C33 82.98 33 84.96 33 87C31.02 87 29.04 87 27 87C27 85.02 27 83.04 27 81Z" fill="white"/>
<path d="M18 81C19.98 81 21.96 81 24 81C24 82.98 24 84.96 24 87C22.02 87 20.04 87 18 87C18 85.02 18 83.04 18 81Z" fill="white"/>
<path d="M9 81C10.98 81 12.96 81 15 81C15 82.98 15 84.96 15 87C13.02 87 11.04 87 9 87C9 85.02 9 83.04 9 81Z" fill="white"/>
<path d="M81 72C82.98 72 84.96 72 87 72C87 73.98 87 75.96 87 78C85.02 78 83.04 78 81 78C81 76.02 81 74.04 81 72Z" fill="white"/>
<path d="M27 72C28.98 72 30.96 72 33 72C33 73.98 33 75.96 33 78C31.02 78 29.04 78 27 78C27 76.02 27 74.04 27 72Z" fill="white"/>
<path d="M18 72C19.98 72 21.96 72 24 72C24 73.98 24 75.96 24 78C22.02 78 20.04 78 18 78C18 76.02 18 74.04 18 72Z" fill="white"/>
<path d="M9 72C10.98 72 12.96 72 15 72C15 73.98 15 75.96 15 78C13.02 78 11.04 78 9 78C9 76.02 9 74.04 9 72Z" fill="white"/>
<path d="M90 63C91.98 63 93.96 63 96 63C96 64.98 96 66.96 96 69C94.02 69 92.04 69 90 69C90 67.02 90 65.04 90 63Z" fill="white"/>
<path d="M81 63C82.98 63 84.96 63 87 63C87 64.98 87 66.96 87 69C85.02 69 83.04 69 81 69C81 67.02 81 65.04 81 63Z" fill="white"/>
<path d="M72 63C73.98 63 75.96 63 78 63C78 64.98 78 66.96 78 69C76.02 69 74.04 69 72 69C72 67.02 72 65.04 72 63Z" fill="white"/>
<path d="M63 63C64.98 63 66.96 63 69 63C69 64.98 69 66.96 69 69C67.02 69 65.04 69 63 69C63 67.02 63 65.04 63 63Z" fill="white"/>
<path d="M54 63C55.98 63 57.96 63 60 63C60 64.98 60 66.96 60 69C58.02 69 56.04 69 54 69C54 67.02 54 65.04 54 63Z" fill="white"/>
<path d="M45 63C46.98 63 48.96 63 51 63C51 64.98 51 66.96 51 69C49.02 69 47.04 69 45 69C45 67.02 45 65.04 45 63Z" fill="white"/>
<path d="M27 63C28.98 63 30.96 63 33 63C33 64.98 33 66.96 33 69C31.02 69 29.04 69 27 69C27 67.02 27 65.04 27 63Z" fill="white"/>
<path d="M18 63C19.98 63 21.96 63 24 63C24 64.98 24 66.96 24 69C22.02 69 20.04 69 18 69C18 67.02 18 65.04 18 63Z" fill="white"/>
<path d="M9 63C10.98 63 12.96 63 15 63C15 64.98 15 66.96 15 69C13.02 69 11.04 69 9 69C9 67.02 9 65.04 9 63Z" fill="white"/>
<path d="M81 54C82.98 54 84.96 54 87 54C87 55.98 87 57.96 87 60C85.02 60 83.04 60 81 60C81 58.02 81 56.04 81 54Z" fill="white"/>
<path d="M72 54C73.98 54 75.96 54 78 54C78 55.98 78 57.96 78 60C76.02 60 74.04 60 72 60C72 58.02 72 56.04 72 54Z" fill="white"/>
<path d="M63 54C64.98 54 66.96 54 69 54C69 55.98 69 57.96 69 60C67.02 60 65.04 60 63 60C63 58.02 63 56.04 63 54Z" fill="white"/>
<path d="M54 54C55.98 54 57.96 54 60 54C60 55.98 60 57.96 60 60C58.02 60 56.04 60 54 60C54 58.02 54 56.04 54 54Z" fill="white"/>
<path d="M45 54C46.98 54 48.96 54 51 54C51 55.98 51 57.96 51 60C49.02 60 47.04 60 45 60C45 58.02 45 56.04 45 54Z" fill="white"/>
<path d="M36 54C37.98 54 39.96 54 42 54C42 55.98 42 57.96 42 60C40.02 60 38.04 60 36 60C36 58.02 36 56.04 36 54Z" fill="white"/>
<path d="M27 54C28.98 54 30.96 54 33 54C33 55.98 33 57.96 33 60C31.02 60 29.04 60 27 60C27 58.02 27 56.04 27 54Z" fill="white"/>
<path d="M18 54C19.98 54 21.96 54 24 54C24 55.98 24 57.96 24 60C22.02 60 20.04 60 18 60C18 58.02 18 56.04 18 54Z" fill="white"/>
<path d="M9 54C10.98 54 12.96 54 15 54C15 55.98 15 57.96 15 60C13.02 60 11.04 60 9 60C9 58.02 9 56.04 9 54Z" fill="white"/>
<path d="M72 45C73.98 45 75.96 45 78 45C78 46.98 78 48.96 78 51C76.02 51 74.04 51 72 51C72 49.02 72 47.04 72 45Z" fill="white"/>
<path d="M63 45C64.98 45 66.96 45 69 45C69 46.98 69 48.96 69 51C67.02 51 65.04 51 63 51C63 49.02 63 47.04 63 45Z" fill="white"/>
<path d="M45 45C46.98 45 48.96 45 51 45C51 46.98 51 48.96 51 51C49.02 51 47.04 51 45 51C45 49.02 45 47.04 45 45Z" fill="white"/>
<path d="M36 45C37.98 45 39.96 45 42 45C42 46.98 42 48.96 42 51C40.02 51 38.04 51 36 51C36 49.02 36 47.04 36 45Z" fill="white"/>
<path d="M27 45C28.98 45 30.96 45 33 45C33 46.98 33 48.96 33 51C31.02 51 29.04 51 27 51C27 49.02 27 47.04 27 45Z" fill="white"/>
<path d="M18 45C19.98 45 21.96 45 24 45C24 46.98 24 48.96 24 51C22.02 51 20.04 51 18 51C18 49.02 18 47.04 18 45Z" fill="white"/>
<path d="M9 45C10.98 45 12.96 45 15 45C15 46.98 15 48.96 15 51C13.02 51 11.04 51 9 51C9 49.02 9 47.04 9 45Z" fill="white"/>
<path d="M63 36C64.98 36 66.96 36 69 36C69 37.98 69 39.96 69 42C67.02 42 65.04 42 63 42C63 40.02 63 38.04 63 36Z" fill="white"/>
<path d="M54 36C55.98 36 57.96 36 60 36C60 37.98 60 39.96 60 42C58.02 42 56.04 42 54 42C54 40.02 54 38.04 54 36Z" fill="white"/>
<path d="M45 36C46.98 36 48.96 36 51 36C51 37.98 51 39.96 51 42C49.02 42 47.04 42 45 42C45 40.02 45 38.04 45 36Z" fill="white"/>
<path d="M36 36C37.98 36 39.96 36 42 36C42 37.98 42 39.96 42 42C40.02 42 38.04 42 36 42C36 40.02 36 38.04 36 36Z" fill="white"/>
<path d="M27 36C28.98 36 30.96 36 33 36C33 37.98 33 39.96 33 42C31.02 42 29.04 42 27 42C27 40.02 27 38.04 27 36Z" fill="white"/>
<path d="M18 36C19.98 36 21.96 36 24 36C24 37.98 24 39.96 24 42C22.02 42 20.04 42 18 42C18 40.02 18 38.04 18 36Z" fill="white"/>
<path d="M9 36C10.98 36 12.96 36 15 36C15 37.98 15 39.96 15 42C13.02 42 11.04 42 9 42C9 40.02 9 38.04 9 36Z" fill="white"/>
<path d="M63 27C64.98 27 66.96 27 69 27C69 28.98 69 30.96 69 33C67.02 33 65.04 33 63 33C63 31.02 63 29.04 63 27Z" fill="white"/>
<path d="M54 27C55.98 27 57.96 27 60 27C60 28.98 60 30.96 60 33C58.02 33 56.04 33 54 33C54 31.02 54 29.04 54 27Z" fill="white"/>
<path d="M45 27C46.98 27 48.96 27 51 27C51 28.98 51 30.96 51 33C49.02 33 47.04 33 45 33C45 31.02 45 29.04 45 27Z" fill="white"/>
<path d="M36 27C37.98 27 39.96 27 42 27C42 28.98 42 30.96 42 33C40.02 33 38.04 33 36 33C36 31.02 36 29.04 36 27Z" fill="white"/>
<path d="M27 27C28.98 27 30.96 27 33 27C33 28.98 33 30.96 33 33C31.02 33 29.04 33 27 33C27 31.02 27 29.04 27 27Z" fill="white"/>
<path d="M18 27C19.98 27 21.96 27 24 27C24 28.98 24 30.96 24 33C22.02 33 20.04 33 18 33C18 31.02 18 29.04 18 27Z" fill="white"/>
<path d="M72 18C73.98 18 75.96 18 78 18C78 19.98 78 21.96 78 24C76.02 24 74.04 24 72 24C72 22.02 72 20.04 72 18Z" fill="white"/>
<path d="M45 18C46.98 18 48.96 18 51 18C51 19.98 51 21.96 51 24C49.02 24 47.04 24 45 24C45 22.02 45 20.04 45 18Z" fill="white"/>
<path d="M36 18C37.98 18 39.96 18 42 18C42 19.98 42 21.96 42 24C40.02 24 38.04 24 36 24C36 22.02 36 20.04 36 18Z" fill="white"/>
<path d="M27 18C28.98 18 30.96 18 33 18C33 19.98 33 21.96 33 24C31.02 24 29.04 24 27 24C27 22.02 27 20.04 27 18Z" fill="white"/>
<path d="M81 9C82.98 9 84.96 9 87 9C87 10.98 87 12.96 87 15C85.02 15 83.04 15 81 15C81 13.02 81 11.04 81 9Z" fill="white"/>
<path d="M45 9C46.98 9 48.96 9 51 9C51 10.98 51 12.96 51 15C49.02 15 47.04 15 45 15C45 13.02 45 11.04 45 9Z" fill="white"/>
</svg>
